<svg xmlns="http://www.w3.org/2000/svg" viewBox="0 0 432 500">
<defs><linearGradient id="bg" x1="0" y1="0" x2="1" y2="1"><stop stop-color="#11131a"/><stop offset="1" stop-color="#06070a"/></linearGradient><radialGradient id="glow"><stop stop-color="#ff7bb8" stop-opacity=".48"/><stop offset="1" stop-color="#ff7bb8" stop-opacity="0"/></radialGradient></defs>
<rect width="432" height="500" rx="24" fill="url(#bg)"/><circle cx="330" cy="105" r="145" fill="url(#glow)"/><rect x="24" y="22" width="384" height="456" rx="18" fill="#fff" opacity=".018" stroke="#fff" stroke-opacity=".13"/>
<circle cx="48" cy="45" r="4" fill="#fff" opacity=".35"/><circle cx="62" cy="45" r="4" fill="#fff" opacity=".22"/><circle cx="76" cy="45" r="4" fill="#fff" opacity=".16"/>
<text x="52" y="88" fill="#fff" font-size="17" font-weight="700" font-family="Arial">NOVA WEAR</text><text x="380" y="88" fill="#fff" font-size="10" opacity=".5" font-family="Arial" text-anchor="end">03 / 03</text>
<rect x="52" y="122" width="328" height="30" rx="10" fill="#fff" opacity=".06"/><rect x="52" y="175" width="72" height="72" rx="16" fill="#fff" opacity=".07"/><rect x="140" y="175" width="72" height="72" rx="16" fill="#fff" opacity=".07"/><rect x="228" y="175" width="72" height="72" rx="16" fill="#fff" opacity=".07"/><rect x="316" y="175" width="64" height="72" rx="16" fill="#fff" opacity=".07"/><rect x="52" y="275" width="328" height="86" rx="18" fill="#fff" opacity=".05"/><rect x="70" y="298" width="120" height="12" rx="6" fill="#fff" opacity=".17"/><rect x="70" y="323" width="210" height="8" rx="4" fill="#fff" opacity=".1"/><text x="52" y="444" fill="#fff" font-size="9" letter-spacing="2" opacity=".55" font-family="Arial">FASHION STORE</text><text x="52" y="462" fill="#fff" font-size="11" opacity=".38" font-family="Arial">Catálogo, productos y compras online.</text></svg>